<svg id="Layer_1" data-name="Layer 1" xmlns="http://www.w3.org/2000/svg" viewBox="0 0 77.42 77.42"><defs><style>.cls-1{fill:#231f20;}</style></defs><title>Ferris Wheel</title><path class="cls-1" d="M38.71,77.42A38.71,38.71,0,1,1,77.42,38.71,38.75,38.75,0,0,1,38.71,77.42Zm0-75.92A37.21,37.21,0,1,0,75.92,38.71,37.25,37.25,0,0,0,38.71,1.5Z"/><path class="cls-1" d="M38.25,69.14c-16.57,0-30-13.73-30-30.6S21.68,8,38.25,8,68.31,21.67,68.31,38.54,54.83,69.14,38.25,69.14Zm0-60.59C22,8.55,8.8,22,8.8,38.54s13.21,30,29.45,30,29.46-13.46,29.46-30S54.5,8.55,38.25,8.55Z"/><path class="cls-1" d="M38.28,62.71A24.22,24.22,0,1,1,62.5,38.5,24.24,24.24,0,0,1,38.28,62.71Zm0-47.83A23.62,23.62,0,1,0,61.9,38.5,23.64,23.64,0,0,0,38.28,14.88Z"/><rect class="cls-1" x="18.41" y="14.16" width="0.6" height="32.69" transform="translate(-16.71 35.58) rotate(-66.64)"/><rect class="cls-1" x="20.73" y="9.93" width="0.6" height="32.72" transform="translate(-12.51 29.18) rotate(-56.26)"/><rect class="cls-1" x="29.44" y="2.68" width="0.6" height="32.6" transform="translate(-5.02 12.95) rotate(-22.71)"/><rect class="cls-1" x="34.04" y="1.19" width="0.6" height="33.14" transform="translate(-2.8 7.03) rotate(-11.23)"/><rect class="cls-1" x="29.62" y="18.47" width="33.32" height="0.6" transform="translate(10.44 53.55) rotate(-66.21)"/><rect class="cls-1" x="33.52" y="20.61" width="33.5" height="0.6" transform="translate(4.59 50.55) rotate(-55.56)"/><rect class="cls-1" x="0.46" y="42.26" width="35.41" height="0.6" transform="matrix(0.98, -0.18, 0.18, 0.98, -7.31, 3.93)"/><rect class="cls-1" x="2.62" y="47.11" width="34.03" height="0.6" transform="translate(-17.56 12.06) rotate(-23.96)"/><rect class="cls-1" x="8.36" y="53.98" width="36.46" height="0.6" transform="translate(-32.76 42.81) rotate(-52.96)"/><rect class="cls-1" x="12.41" y="55.93" width="37.97" height="0.6" transform="translate(-32.59 63.51) rotate(-67.32)"/><rect class="cls-1" x="41.75" y="40.23" width="0.6" height="36.17" transform="translate(-10.04 8.76) rotate(-10.64)"/><rect class="cls-1" x="45.62" y="37.29" width="0.6" height="37.97" transform="translate(-17.94 21.67) rotate(-22.33)"/><rect class="cls-1" x="54.14" y="30.36" width="0.6" height="37.96" transform="translate(-16.92 66.82) rotate(-55.95)"/><rect class="cls-1" x="56.47" y="27.01" width="0.6" height="37.26" transform="translate(-7.16 80.56) rotate(-67.44)"/><rect class="cls-1" x="38.04" y="30.17" width="36.83" height="0.6" transform="matrix(0.92, -0.4, 0.4, 0.92, -7.47, 25.02)"/><rect class="cls-1" x="39.22" y="34.64" width="37.09" height="0.6" transform="translate(-5.63 11.73) rotate(-11.06)"/><circle class="cls-1" cx="38.63" cy="38.82" r="5.81"/><path class="cls-1" d="M38.63,44.93a6.12,6.12,0,1,1,6.11-6.11A6.12,6.12,0,0,1,38.63,44.93Zm0-11.63a5.52,5.52,0,1,0,5.51,5.52A5.53,5.53,0,0,0,38.63,33.3Z"/><rect class="cls-1" x="9.91" y="23.83" width="12.52" height="0.6" transform="translate(-9.29 10.15) rotate(-27.42)"/><rect class="cls-1" x="13.79" y="19.7" width="11.73" height="0.6" transform="translate(-4.69 6.08) rotate(-15.75)"/><rect class="cls-1" x="14.15" y="21.58" width="0.6" height="11.99" transform="translate(-1.96 1.12) rotate(-4.16)"/><rect class="cls-1" x="17.66" y="15.85" width="12.31" height="0.6" transform="translate(-1.35 30.11) rotate(-63.17)"/><rect class="cls-1" x="22.03" y="13.57" width="13.21" height="0.6" transform="translate(-0.22 27.27) rotate(-50.75)"/><rect class="cls-1" x="32.14" y="6.46" width="0.6" height="12.33" transform="translate(10.16 39.36) rotate(-71.46)"/><rect class="cls-1" x="38.07" y="5.54" width="0.6" height="12.83" transform="translate(8.83 39.21) rotate(-60)"/><rect class="cls-1" x="36.93" y="12.13" width="13.19" height="0.6" transform="translate(-1.74 12.23) rotate(-15.69)"/><rect class="cls-1" x="41.92" y="14.06" width="13.62" height="0.6" transform="translate(-0.92 3.61) rotate(-4.2)"/><rect class="cls-1" x="53.02" y="9.76" width="0.6" height="14.44" transform="translate(-1.63 27.54) rotate(-28.55)"/><rect class="cls-1" x="59.21" y="16.38" width="0.6" height="13.76" transform="translate(10.88 64.7) rotate(-61.79)"/><rect class="cls-1" x="57.22" y="13.58" width="0.6" height="14.18" transform="translate(-3.49 17.01) rotate(-16.33)"/><rect class="cls-1" x="61.8" y="20.89" width="0.6" height="14.12" transform="translate(0.3 56.56) rotate(-49.08)"/><rect class="cls-1" x="57.09" y="33.94" width="13.9" height="0.6" transform="matrix(0.28, -0.96, 0.96, 0.28, 13.12, 86.02)"/><rect class="cls-1" x="63.51" y="32.7" width="0.6" height="16.95" transform="matrix(0.96, -0.27, 0.27, 0.96, -8.65, 18.44)"/><rect class="cls-1" x="57.01" y="38.81" width="14.52" height="0.6" transform="translate(1.07 79.92) rotate(-64.17)"/><rect class="cls-1" x="62.35" y="38.48" width="0.6" height="16.73" transform="translate(-2.47 3.5) rotate(-3.13)"/><rect class="cls-1" x="52.23" y="52.92" width="14.92" height="0.6" transform="translate(-18.96 38.76) rotate(-31.3)"/><rect class="cls-1" x="46.49" y="59.86" width="13.71" height="0.6" transform="translate(-24.43 80.55) rotate(-63.12)"/><rect class="cls-1" x="47.22" y="57.55" width="16.33" height="0.6" transform="translate(-15.76 21.07) rotate(-18.91)"/><rect class="cls-1" x="41.39" y="62.22" width="14.41" height="0.6" transform="translate(-30.47 58.15) rotate(-48.98)"/><rect class="cls-1" x="43.19" y="57.28" width="0.6" height="14.08" transform="translate(-30.39 88.2) rotate(-73.85)"/><rect class="cls-1" x="26.4" y="63.99" width="15.95" height="0.6" transform="translate(-16.24 11.83) rotate(-15.84)"/><rect class="cls-1" x="37.91" y="58.39" width="0.6" height="12.9" transform="translate(-37.02 66.94) rotate(-61.08)"/><rect class="cls-1" x="19.92" y="51.69" width="0.6" height="12.43" transform="matrix(0.96, -0.28, 0.28, 0.96, -15.23, 7.85)"/><rect class="cls-1" x="21.89" y="62.79" width="14.07" height="0.6" transform="translate(-6.93 3.67) rotate(-6.48)"/><rect class="cls-1" x="24.21" y="54.88" width="0.6" height="12.13" transform="translate(-26.26 19.26) rotate(-28.7)"/><rect class="cls-1" x="16.24" y="47.78" width="0.6" height="11.1" transform="translate(-38.86 46.36) rotate(-65.6)"/><rect class="cls-1" x="13.45" y="41.84" width="0.6" height="12.33" transform="translate(-32.02 28.03) rotate(-50.45)"/><rect class="cls-1" x="6.79" y="44.77" width="12.27" height="0.6" transform="translate(-33.92 47.08) rotate(-76.45)"/><rect class="cls-1" x="5.91" y="38.52" width="12.06" height="0.6" transform="translate(-27.77 30.28) rotate(-60.77)"/><rect class="cls-1" x="12.19" y="26.72" width="0.6" height="12.67" transform="translate(-9.24 5.19) rotate(-17.25)"/></svg>