<svg id="Layer_1" data-name="Layer 1" xmlns="http://www.w3.org/2000/svg" viewBox="0 0 242.39 129.6"><defs><style>.cls-1{fill:#221f1f;}.cls-2{fill:#231f20;}.cls-3{fill:#fff;}</style></defs><title>Ferris Wheel</title><path class="cls-1" d="M157.49,107.37,125.7,60.73l-1.42.82,24.91,45.82H94.45l26-45.78L119,60.73,86,107.37l-4.72.21v2.56h81.5v-2.77Zm-68.27-.51,29.32-44.29L92.91,106.86Zm61.93,0L125.52,62.57l29.32,44.29Z"/><path class="cls-1" d="M163.12,110.44H81v-3.15l4.86-.21,33-46.75,2,1.15L95,107.07h53.72L123.87,61.43l1.92-1.1,31.86,46.74h5.47Zm-81.5-.6h80.9v-2.17h-5.19l-.09-.13L125.61,61.13l-.93.53.58,1.06.51-.31,29.62,44.75H151l-.08-.15L125.27,62.74l24.42,44.93H93.93l26.1-46-1-.58L86.2,107.67l-4.58.19Zm69.7-3.28h3L130.77,71.05Zm-58.24.6H88.66l29.63-44.75.51.31Zm-3.3-.6h3l20.55-35.51Z"/><circle class="cls-2" cx="122.07" cy="58.19" r="5.81"/><path class="cls-2" d="M122.07,64.3a6.12,6.12,0,1,1,6.12-6.11A6.12,6.12,0,0,1,122.07,64.3Zm0-11.63a5.52,5.52,0,1,0,5.52,5.52A5.52,5.52,0,0,0,122.07,52.67Z"/><circle class="cls-2" cx="122.07" cy="58.19" r="3.6"/><path class="cls-3" d="M122.07,61.94a3.75,3.75,0,1,1,3.75-3.75A3.76,3.76,0,0,1,122.07,61.94Zm0-7.2a3.45,3.45,0,1,0,3.45,3.45A3.46,3.46,0,0,0,122.07,54.74Z"/><path class="cls-3" d="M122.07,64a5.85,5.85,0,1,1,5.85-5.85A5.86,5.86,0,0,1,122.07,64Zm0-11.63a5.78,5.78,0,1,0,5.78,5.78A5.78,5.78,0,0,0,122.07,52.41Z"/><circle class="cls-3" cx="122.99" cy="53.49" r="0.57"/><circle class="cls-3" cx="126.01" cy="55.53" r="0.57"/><circle class="cls-3" cx="126.75" cy="59.09" r="0.57"/><circle class="cls-3" cx="124.76" cy="62.16" r="0.57"/><circle class="cls-3" cx="121.12" cy="62.89" r="0.57"/><circle class="cls-3" cx="118.13" cy="60.85" r="0.57"/><circle class="cls-3" cx="117.43" cy="57.23" r="0.57"/><circle class="cls-3" cx="119.39" cy="54.24" r="0.57"/></svg>